<svg width="65" height="64" viewBox="0 0 65 64" fill="none" xmlns="http://www.w3.org/2000/svg">
<rect x="0.744141" width="64" height="64" rx="4" fill="#9A3648" fill-opacity="0.6"/>
<path d="M27.4473 35.1406C29.291 34.3906 31.0566 34.0156 32.7441 34.0156C34.4316 34.0156 36.1816 34.3906 37.9941 35.1406C39.8379 35.8594 40.7598 36.8125 40.7598 38V40.0156H24.7285V38C24.7285 36.8125 25.6348 35.8594 27.4473 35.1406ZM35.5566 30.8281C34.7754 31.6094 33.8379 32 32.7441 32C31.6504 32 30.7129 31.6094 29.9316 30.8281C29.1504 30.0469 28.7598 29.1094 28.7598 28.0156C28.7598 26.9219 29.1504 25.9844 29.9316 25.2031C30.7129 24.3906 31.6504 23.9844 32.7441 23.9844C33.8379 23.9844 34.7754 24.3906 35.5566 25.2031C36.3379 25.9844 36.7285 26.9219 36.7285 28.0156C36.7285 29.1094 36.3379 30.0469 35.5566 30.8281Z" fill="white"/>
</svg>
