<svg width="64" height="65" viewBox="0 0 64 65" fill="none" xmlns="http://www.w3.org/2000/svg">
<rect y="0.881836" width="64" height="64" rx="4" fill="#9A3648"/>
<path d="M26.7031 36.0225C28.5469 35.2725 30.3125 34.8975 32 34.8975C33.6875 34.8975 35.4375 35.2725 37.25 36.0225C39.0938 36.7412 40.0156 37.6943 40.0156 38.8818V40.8975H23.9844V38.8818C23.9844 37.6943 24.8906 36.7412 26.7031 36.0225ZM34.8125 31.71C34.0312 32.4912 33.0938 32.8818 32 32.8818C30.9062 32.8818 29.9688 32.4912 29.1875 31.71C28.4062 30.9287 28.0156 29.9912 28.0156 28.8975C28.0156 27.8037 28.4062 26.8662 29.1875 26.085C29.9688 25.2725 30.9062 24.8662 32 24.8662C33.0938 24.8662 34.0312 25.2725 34.8125 26.085C35.5938 26.8662 35.9844 27.8037 35.9844 28.8975C35.9844 29.9912 35.5938 30.9287 34.8125 31.71Z" fill="white"/>
</svg>
