<svg width="20" height="20" viewBox="0 0 20 20" fill="none" xmlns="http://www.w3.org/2000/svg">
<path fill-rule="evenodd" clip-rule="evenodd" d="M13.4601 12.3185L17.7639 16.6223C17.9151 16.7737 18.0001 16.979 18 17.193C17.9999 17.407 17.9148 17.6122 17.7635 17.7635C17.6121 17.9147 17.4068 17.9997 17.1928 17.9996C16.9788 17.9995 16.7736 17.9144 16.6223 17.7631L12.3185 13.4593C11.0319 14.4558 9.41407 14.9247 7.79403 14.7707C6.17398 14.6167 4.67346 13.8513 3.59771 12.6302C2.52196 11.4091 1.95179 9.82408 2.0032 8.19754C2.0546 6.57101 2.72372 5.02514 3.87443 3.87443C5.02514 2.72372 6.57101 2.0546 8.19754 2.0032C9.82408 1.95179 11.4091 2.52196 12.6302 3.59771C13.8513 4.67346 14.6167 6.17398 14.7707 7.79403C14.9247 9.41407 14.4558 11.0319 13.4593 12.3185H13.4601ZM8.4003 13.1993C9.67328 13.1993 10.8941 12.6936 11.7943 11.7935C12.6944 10.8933 13.2001 9.67248 13.2001 8.3995C13.2001 7.12652 12.6944 5.90568 11.7943 5.00554C10.8941 4.10541 9.67328 3.59972 8.4003 3.59972C7.12732 3.59972 5.90648 4.10541 5.00634 5.00554C4.10621 5.90568 3.60052 7.12652 3.60052 8.3995C3.60052 9.67248 4.10621 10.8933 5.00634 11.7935C5.90648 12.6936 7.12732 13.1993 8.4003 13.1993Z" fill="white"/>
</svg>
