<svg width="31" height="31" viewBox="0 0 31 31" fill="none" xmlns="http://www.w3.org/2000/svg">
<path d="M30.416 9.31505C30.344 7.71777 30.0859 6.6249 29.7198 5.67014C29.3358 4.68535 28.8257 3.84468 27.9915 3.01601C27.1573 2.18735 26.3232 1.66493 25.339 1.28663C24.3848 0.914331 23.2926 0.66213 21.6962 0.590072C20.0939 0.518014 19.5838 0.5 15.515 0.5C11.4402 0.5 10.9301 0.518014 9.33377 0.590072C7.73745 0.66213 6.64523 0.920336 5.69104 1.28663C4.70084 1.67094 3.86067 2.18134 3.03251 3.01601C2.20434 3.85068 1.68224 4.68535 1.30416 5.67014C0.938089 6.6249 0.680038 7.71777 0.608023 9.31505C0.536009 10.9183 0.518005 11.4287 0.518005 15.5C0.518005 19.5773 0.536009 20.0877 0.608023 21.6849C0.680038 23.2822 0.938089 24.3751 1.30416 25.3299C1.68824 26.3147 2.19834 27.1553 3.03251 27.984C3.86067 28.8187 4.70084 29.3351 5.68504 29.7134C6.63923 30.0857 7.73145 30.3379 9.32777 30.4099C10.9301 30.482 11.4402 30.5 15.509 30.5C19.5838 30.5 20.0939 30.482 21.6902 30.4099C23.2866 30.3379 24.3788 30.0797 25.333 29.7134C26.3172 29.3291 27.1573 28.8187 27.9855 27.984C28.8137 27.1493 29.3358 26.3147 29.7138 25.3299C30.0859 24.3751 30.338 23.2822 30.41 21.6849C30.482 20.0817 30.5 19.5713 30.5 15.5C30.5 11.4287 30.488 10.9123 30.416 9.31505ZM27.7214 21.5649C27.6554 23.03 27.4094 23.8287 27.2053 24.3511C26.9353 25.0476 26.6052 25.552 26.0771 26.0805C25.549 26.6089 25.0509 26.9271 24.3488 27.2094C23.8207 27.4135 23.0225 27.6597 21.5642 27.7258C19.9859 27.7978 19.5118 27.8159 15.503 27.8159C11.4942 27.8159 11.0201 27.7978 9.44179 27.7258C7.9775 27.6597 7.17934 27.4135 6.65723 27.2094C5.96109 26.9392 5.45699 26.6089 4.92889 26.0805C4.40078 25.552 4.08272 25.0536 3.80066 24.3511C3.59662 23.8227 3.35057 23.024 3.28456 21.5649C3.21254 19.9856 3.19454 19.5112 3.19454 15.5C3.19454 11.4888 3.21254 11.0144 3.28456 9.43515C3.35057 7.96998 3.59662 7.17134 3.80066 6.64892C4.07072 5.95236 4.40078 5.44796 4.92889 4.91954C5.45699 4.39111 5.95509 4.07286 6.65723 3.79063C7.18534 3.58647 7.9835 3.34027 9.44179 3.27422C11.0201 3.20216 11.4942 3.18415 15.503 3.18415C19.5118 3.18415 19.9859 3.20216 21.5642 3.27422C23.0285 3.34027 23.8267 3.58647 24.3488 3.79063C25.0449 4.06085 25.549 4.39111 26.0771 4.91954C26.6052 5.44796 26.9233 5.94636 27.2053 6.64892C27.4094 7.17734 27.6554 7.97598 27.7214 9.43515C27.7935 11.0144 27.8115 11.4888 27.8115 15.5C27.8115 19.5112 27.7875 19.9856 27.7214 21.5649Z" fill="url(#paint0_linear_82_3573)"/>
<path d="M15.5031 7.78979C11.2422 7.78979 7.79752 11.2426 7.79752 15.5C7.79752 19.7634 11.2482 23.2101 15.5031 23.2101C19.7579 23.2101 23.2086 19.7514 23.2086 15.5C23.2086 11.2366 19.7639 7.78979 15.5031 7.78979ZM15.5031 20.502C12.7425 20.502 10.5041 18.2622 10.5041 15.5C10.5041 12.7378 12.7425 10.498 15.5031 10.498C18.2636 10.498 20.5021 12.7378 20.5021 15.5C20.5021 18.2622 18.2636 20.502 15.5031 20.502Z" fill="url(#paint1_linear_82_3573)"/>
<path d="M23.5086 9.29112C24.5029 9.29112 25.309 8.48458 25.309 7.48967C25.309 6.49477 24.5029 5.68823 23.5086 5.68823C22.5143 5.68823 21.7083 6.49477 21.7083 7.48967C21.7083 8.48458 22.5143 9.29112 23.5086 9.29112Z" fill="#BC30A0"/>
<path d="M0.5 15.5C0.5 19.5773 0.518004 20.0877 0.590018 21.6849C0.662032 23.2822 0.920084 24.3751 1.28616 25.3299C1.67023 26.3147 2.18034 27.1553 3.0145 27.984C3.84267 28.8127 4.68284 29.3351 5.66703 29.7134C6.62122 30.0857 7.71344 30.3379 9.30976 30.4099C10.9121 30.482 11.4222 30.5 15.491 30.5C19.5658 30.5 20.0759 30.482 21.6722 30.4099C23.2686 30.3379 24.3608 30.0797 25.315 29.7134C26.2992 29.3291 27.1393 28.8187 27.9675 27.984C28.7957 27.1553 29.3178 26.3147 29.6958 25.3299C30.0679 24.3751 30.32 23.2822 30.392 21.6849C30.464 20.0817 30.482 19.5713 30.482 15.5C30.482 11.4227 30.464 10.9123 30.392 9.31505C30.32 7.71777 30.0619 6.6249 29.6958 5.67014C29.3118 4.68535 28.8017 3.84468 27.9675 3.01601C27.1453 2.18134 26.3052 1.66493 25.321 1.28663C24.3668 0.914331 23.2746 0.66213 21.6782 0.590072C20.0759 0.518014 19.5658 0.5 15.497 0.5C11.4222 0.5 10.9121 0.518014 9.31576 0.590072C7.71944 0.66213 6.62722 0.920336 5.67303 1.28663C4.68884 1.67094 3.84867 2.18134 3.0205 3.01601C2.19234 3.85068 1.67023 4.68535 1.29216 5.67014C0.920084 6.6249 0.662032 7.71777 0.590018 9.31505C0.518004 10.9123 0.5 11.4227 0.5 15.5ZM3.20654 15.5C3.20654 11.4948 3.22454 11.0144 3.29656 9.43515C3.36257 7.96998 3.60862 7.17134 3.81266 6.64892C4.08272 5.95236 4.41278 5.44796 4.94089 4.91954C5.46899 4.39111 5.96709 4.07286 6.66923 3.79063C7.19734 3.58647 7.9955 3.34027 9.45379 3.27422C11.0321 3.20216 11.5062 3.18415 15.515 3.18415C19.5238 3.18415 19.9979 3.20216 21.5762 3.27422C23.0405 3.34027 23.8387 3.58647 24.3608 3.79063C25.0569 4.06085 25.561 4.39111 26.0891 4.91954C26.6172 5.44796 26.9353 5.94636 27.2173 6.64892C27.4214 7.17734 27.6674 7.97598 27.7334 9.43515C27.8055 11.0144 27.8235 11.4888 27.8235 15.5C27.8235 19.5112 27.8055 19.9856 27.7334 21.5649C27.6674 23.03 27.4214 23.8287 27.2173 24.3511C26.9473 25.0476 26.6172 25.552 26.0891 26.0805C25.561 26.6089 25.0629 26.9271 24.3608 27.2094C23.8327 27.4135 23.0345 27.6597 21.5762 27.7258C19.9979 27.7978 19.5238 27.8159 15.515 27.8159C11.5062 27.8159 11.0321 27.7978 9.45379 27.7258C7.9895 27.6597 7.19134 27.4135 6.66923 27.2094C5.97309 26.9392 5.46899 26.6089 4.94089 26.0805C4.41278 25.552 4.09472 25.0536 3.81266 24.3511C3.60862 23.8227 3.36257 23.024 3.29656 21.5649C3.21854 19.9856 3.20654 19.5052 3.20654 15.5Z" fill="url(#paint2_linear_82_3573)"/>
<defs>
<linearGradient id="paint0_linear_82_3573" x1="25.8694" y1="2.794" x2="4.1663" y2="29.3845" gradientUnits="userSpaceOnUse">
<stop stop-color="#AE3DAE"/>
<stop offset="0.0468721" stop-color="#B23BA6"/>
<stop offset="0.1216" stop-color="#BD368E"/>
<stop offset="0.2148" stop-color="#CE2E69"/>
<stop offset="0.3216" stop-color="#E62335"/>
<stop offset="0.418" stop-color="#FF1800"/>
</linearGradient>
<linearGradient id="paint1_linear_82_3573" x1="19.1779" y1="9.31604" x2="11.2937" y2="22.5642" gradientUnits="userSpaceOnUse">
<stop stop-color="#E12F6A"/>
<stop offset="0.1705" stop-color="#EA3751"/>
<stop offset="0.3563" stop-color="#F13D3E"/>
<stop offset="0.5467" stop-color="#F64133"/>
<stop offset="0.7469" stop-color="#F7422F"/>
<stop offset="0.7946" stop-color="#F74C2F"/>
<stop offset="0.8743" stop-color="#F7652F"/>
<stop offset="0.9757" stop-color="#F78F2E"/>
<stop offset="1" stop-color="#F79A2E"/>
</linearGradient>
<linearGradient id="paint2_linear_82_3573" x1="22.2976" y1="-0.735039" x2="9.01736" y2="30.9204" gradientUnits="userSpaceOnUse">
<stop offset="0.2341" stop-color="#9E35A5" stop-opacity="0"/>
<stop offset="0.4512" stop-color="#D42F7F" stop-opacity="0.5"/>
<stop offset="0.7524" stop-color="#F7772E"/>
<stop offset="0.9624" stop-color="#FEF780"/>
</linearGradient>
</defs>
</svg>
