<svg width="31" height="31" viewBox="0 0 31 31" fill="none" xmlns="http://www.w3.org/2000/svg">
<rect x="0.5" y="0.5" width="30" height="30" rx="15" fill="#0A66C2"/>
<g clip-path="url(#clip0_82_3574)">
<path d="M6.75 9.08466C6.75 8.52158 6.94708 8.05706 7.34122 7.69108C7.73535 7.32508 8.24775 7.14209 8.87838 7.14209C9.49775 7.14209 9.99887 7.32226 10.3818 7.68263C10.7759 8.05425 10.973 8.53847 10.973 9.13533C10.973 9.67587 10.7815 10.1263 10.3986 10.4867C10.0045 10.8583 9.48649 11.0441 8.84459 11.0441H8.8277C8.20833 11.0441 7.70721 10.8583 7.32432 10.4867C6.94144 10.1151 6.75 9.64771 6.75 9.08466ZM6.96959 23.8651V12.5813H10.7196V23.8651H6.96959ZM12.7973 23.8651H16.5473V17.5644C16.5473 17.1702 16.5923 16.8662 16.6824 16.6522C16.8401 16.2693 17.0794 15.9456 17.4003 15.6809C17.7213 15.4163 18.1239 15.284 18.6081 15.284C19.8694 15.284 20.5 16.1342 20.5 17.8347V23.8651H24.25V17.3955C24.25 15.7288 23.8559 14.4647 23.0676 13.6032C22.2793 12.7418 21.2376 12.311 19.9426 12.311C18.4899 12.311 17.3581 12.936 16.5473 14.186V14.2198H16.5304L16.5473 14.186V12.5813H12.7973C12.8198 12.9416 12.8311 14.0621 12.8311 15.9428C12.8311 17.8234 12.8198 20.4641 12.7973 23.8651Z" fill="white"/>
</g>
<defs>
<clipPath id="clip0_82_3574">
<rect x="6.75" y="6.75" width="17.5" height="17.5" fill="white"/>
</clipPath>
</defs>
</svg>
