<svg width="23" height="22" viewBox="0 0 23 22" fill="none" xmlns="http://www.w3.org/2000/svg">
<path d="M5.99772 13.1332L4.63104 19.0512C4.58872 19.2304 4.60143 19.4181 4.6675 19.59C4.73357 19.7619 4.84993 19.9098 5.00139 20.0145C5.15286 20.1192 5.33237 20.1758 5.5165 20.1769C5.70062 20.178 5.8808 20.1236 6.03349 20.0207L11.0278 16.6911L16.0222 20.0207C16.1784 20.1244 16.3627 20.1778 16.5502 20.1737C16.7377 20.1696 16.9194 20.1082 17.0709 19.9977C17.2225 19.8872 17.3365 19.7329 17.3978 19.5557C17.4591 19.3784 17.4646 19.1867 17.4136 19.0062L15.736 13.1359L19.8966 9.39176C20.0298 9.27177 20.125 9.11536 20.1703 8.94187C20.2156 8.76837 20.209 8.5854 20.1515 8.41559C20.0939 8.24577 19.9878 8.09656 19.8463 7.9864C19.7048 7.87624 19.5342 7.80996 19.3554 7.79577L14.1263 7.37935L11.8634 2.37033C11.7913 2.20904 11.674 2.07208 11.5257 1.97598C11.3774 1.87987 11.2045 1.82874 11.0278 1.82874C10.8511 1.82874 10.6782 1.87987 10.53 1.97598C10.3817 2.07208 10.2644 2.20904 10.1922 2.37033L7.92942 7.37935L2.70027 7.79486C2.52457 7.80877 2.35661 7.87301 2.21647 7.97989C2.07634 8.08677 1.96996 8.23175 1.91006 8.3975C1.85017 8.56326 1.83929 8.74275 1.87874 8.91453C1.91819 9.0863 2.00629 9.24306 2.1325 9.36608L5.99772 13.1332ZM8.61459 9.1652C8.77831 9.1523 8.93555 9.0956 9.06982 9.00103C9.20409 8.90646 9.31044 8.77751 9.37773 8.6277L11.0278 4.97619L12.6779 8.6277C12.7452 8.77751 12.8516 8.90646 12.9859 9.00103C13.1201 9.0956 13.2774 9.1523 13.4411 9.1652L17.0843 9.45413L14.0841 12.1545C13.8236 12.3893 13.7199 12.7507 13.8153 13.0882L14.9646 17.1103L11.5378 14.8255C11.3874 14.7245 11.2104 14.6706 11.0292 14.6706C10.8481 14.6706 10.671 14.7245 10.5206 14.8255L6.93972 17.213L7.90282 13.0433C7.93813 12.8899 7.93339 12.73 7.88906 12.579C7.84472 12.428 7.76228 12.291 7.64966 12.1811L4.8631 9.46422L8.61459 9.1652Z" fill="#E77C40"/>
</svg>
